<svg width="145" height="32" viewBox="0 0 145 32" fill="none" xmlns="http://www.w3.org/2000/svg">
<path fill-rule="evenodd" clip-rule="evenodd" d="M5.29284 8.05285C7.72286 4.78427 11.6141 2.66665 16 2.66665C20.4116 2.66665 24.3227 4.80925 26.7497 8.11062C26.6465 8.21686 26.5524 8.32694 26.4673 8.43689C26.0226 9.0126 25.6882 9.75418 25.4202 10.5072C24.8805 12.0218 24.4688 14.0001 24.0877 15.8527L24.0539 16.0193C23.6736 17.8684 23.3202 19.5882 22.8928 20.8648C22.7008 21.4383 22.5187 21.8438 22.3573 22.1035C22.1888 21.8418 21.9976 21.4313 21.7953 20.8495C21.3382 19.5363 20.9538 17.75 20.5463 15.8426L20.5331 15.7802C20.1415 13.9481 19.726 12.0042 19.2081 10.5163C18.9479 9.76884 18.6286 9.03469 18.211 8.46431C17.8012 7.90454 17.119 7.27279 16.1212 7.27279C15.1297 7.27279 14.4444 7.89768 14.0286 8.45118C13.603 9.01785 13.2711 9.74897 12.9977 10.4968C12.4472 12.0027 11.9971 13.9725 11.5782 15.8276L11.5349 16.0193C11.1201 17.8569 10.7324 19.575 10.2922 20.8541C10.1242 21.3426 9.96563 21.7142 9.8221 21.9797C9.68184 21.7154 9.52725 21.3463 9.36378 20.8619C8.9415 19.6101 8.57158 17.9401 8.17429 16.1465L8.10475 15.8326C7.69309 13.9764 7.24649 12.003 6.68812 10.4924C6.41069 9.74175 6.07137 9.00699 5.63225 8.43764C5.53282 8.30877 5.41981 8.17796 5.29284 8.05285ZM3.82212 10.5626C3.93786 10.7911 4.06028 11.0744 4.18688 11.4169C4.67018 12.7244 5.07966 14.5086 5.50132 16.41L5.58336 16.7804C5.96728 18.5153 6.36664 20.32 6.83702 21.7142C7.0872 22.4557 7.38931 23.182 7.7779 23.7465C8.14534 24.2804 8.80454 24.9699 9.81818 24.9699C10.8289 24.9699 11.4897 24.2837 11.8596 23.7523C12.2515 23.1891 12.5586 22.4636 12.8138 21.7216C13.3031 20.2998 13.7197 18.4528 14.1184 16.6853L14.1794 16.415C14.609 14.5125 15.0225 12.7247 15.5023 11.4124C15.7246 10.8044 15.9327 10.3809 16.1138 10.1181C16.2855 10.3786 16.4817 10.7954 16.6897 11.393C17.1468 12.7063 17.5309 14.4926 17.9385 16.3999L17.9519 16.4624C18.3434 18.2945 18.7588 20.2384 19.2768 21.7261C19.537 22.4739 19.8563 23.208 20.2738 23.7783C20.6838 24.3382 21.3659 24.9699 22.3635 24.9699C23.3664 24.9699 24.046 24.3324 24.4511 23.7675C24.8623 23.1944 25.1716 22.4578 25.4214 21.7113C25.9016 20.2774 26.2836 18.4168 26.6473 16.6469L26.6998 16.3899C27.0916 14.4849 27.4678 12.7056 27.9323 11.402C28.033 11.1184 28.1321 10.8766 28.2267 10.6735C28.9385 12.3049 29.3333 14.1064 29.3333 16C29.3333 23.3637 23.3639 29.3335 16 29.3335C8.6362 29.3335 2.66665 23.3637 2.66665 16C2.66665 14.0634 3.07956 12.2231 3.82212 10.5626ZM16 0C7.16346 0 0 7.16346 0 16C0 24.8365 7.16346 32 16 32C24.8367 32 31.9998 24.8365 31.9998 16C31.9998 7.16346 24.8367 0 16 0ZM16.3029 9.89659C16.3042 9.89564 16.3048 9.89506 16.3048 9.8949C16.3048 9.89457 16.3017 9.89638 16.2955 9.90134C16.2989 9.89935 16.3013 9.89774 16.3029 9.89659ZM15.9362 9.89671C15.9301 9.89291 15.927 9.89031 15.927 9.88998C15.927 9.88965 15.9301 9.89155 15.9362 9.89671ZM22.1607 22.3566C22.1607 22.3566 22.1636 22.3538 22.1694 22.35C22.1636 22.355 22.1607 22.3571 22.1607 22.3566ZM22.5484 22.3459C22.5546 22.3496 22.5579 22.3521 22.5579 22.3525C22.5579 22.3529 22.5546 22.3509 22.5484 22.3459ZM9.54492 22.3806C9.54488 22.3802 9.54872 22.3765 9.5564 22.3711C9.5488 22.3781 9.54492 22.381 9.54492 22.3806ZM10.085 22.3736C10.0926 22.3789 10.0964 22.3827 10.0964 22.3831C10.0964 22.3835 10.0925 22.381 10.085 22.3736Z" fill="#FF8F50"/>
<path d="M40.8351 25.4724L36.9551 12.2004H40.3537L42.6548 21.753L45.3304 12.2004H49.1299L51.806 21.753L54.1339 12.2004H57.5321L53.6256 25.4724H50.0668L47.2302 15.5452L44.3939 25.4724H40.8351Z" fill="#622F60"/>
<path d="M62.5187 25.7936C61.377 25.7936 60.4406 25.6148 59.7093 25.258C58.9781 24.8835 58.4339 24.393 58.0771 23.7865C57.7204 23.1799 57.542 22.511 57.542 21.7797C57.542 20.5488 58.0234 19.5499 58.9867 18.7828C59.95 18.0158 61.3952 17.6322 63.3218 17.6322H66.6932V17.3111C66.6932 16.4013 66.4343 15.7324 65.9173 15.3043C65.4 14.8761 64.7575 14.6621 63.9907 14.6621C63.295 14.6621 62.6884 14.8315 62.1711 15.1705C61.6537 15.4916 61.3324 15.9732 61.2077 16.6154H57.8628C57.9524 15.6521 58.2732 14.8137 58.8261 14.1002C59.3972 13.3866 60.1284 12.8425 61.0203 12.4679C61.9126 12.0755 62.9114 11.8793 64.0171 11.8793C65.9082 11.8793 67.3976 12.352 68.486 13.2974C69.574 14.2429 70.1182 15.5808 70.1182 17.3111V25.4723H67.2014L66.8806 23.3318C66.488 24.0453 65.9351 24.6337 65.2216 25.0978C64.5258 25.5615 63.6249 25.7936 62.5187 25.7936ZM63.295 23.1175C64.276 23.1175 65.0341 22.7963 65.5692 22.1542C66.1221 21.5122 66.4702 20.7182 66.6131 19.7728H63.6963C62.7863 19.7728 62.1355 19.9423 61.7429 20.2812C61.3506 20.6023 61.1541 21.0039 61.1541 21.4853C61.1541 22.0027 61.3506 22.404 61.7429 22.6894C62.1355 22.9747 62.6525 23.1175 63.295 23.1175Z" fill="#622F60"/>
<path d="M75.5094 25.4724L70.6396 12.2004H74.2249L77.5967 22.2349L80.968 12.2004H84.5537L79.657 25.4724H75.5094Z" fill="#622F60"/>
<path d="M91.439 25.7936C90.1012 25.7936 88.9149 25.5078 87.8802 24.9372C86.8458 24.3662 86.0341 23.5635 85.4453 22.5287C84.8565 21.4944 84.5625 20.2991 84.5625 18.9433C84.5625 17.5698 84.8478 16.3478 85.4184 15.2775C86.0072 14.2072 86.8099 13.3777 87.8269 12.789C88.8612 12.1825 90.0743 11.8793 91.4658 11.8793C92.7681 11.8793 93.9189 12.1647 94.9177 12.7355C95.9165 13.3063 96.6928 14.0912 97.2456 15.0902C97.8163 16.0713 98.102 17.1684 98.102 18.3814C98.102 18.5777 98.0929 18.7828 98.0752 18.9969C98.0752 19.2109 98.0661 19.4339 98.0483 19.6658H87.9607C88.0321 20.7004 88.3889 21.5122 89.0309 22.101C89.6908 22.6894 90.4848 22.9838 91.4126 22.9838C92.1079 22.9838 92.688 22.8322 93.1517 22.5287C93.6332 22.2079 93.9899 21.7975 94.222 21.2979H97.7007C97.4509 22.1365 97.0313 22.9037 96.443 23.5994C95.8719 24.277 95.1584 24.8121 94.3021 25.2048C93.4639 25.597 92.5092 25.7936 91.439 25.7936ZM91.4658 14.6621C90.6276 14.6621 89.8873 14.9029 89.2448 15.3845C88.6028 15.8483 88.1923 16.5619 88.014 17.5252H94.6233C94.5696 16.6511 94.2488 15.9554 93.66 15.438C93.0712 14.9208 92.3399 14.6621 91.4658 14.6621Z" fill="#622F60"/>
<path d="M99.9121 25.4724V6.2066H103.337V25.4724H99.9121Z" fill="#622F60"/>
<path d="M112.215 25.7936C110.878 25.7936 109.691 25.5078 108.657 24.9372C107.622 24.3662 106.81 23.5635 106.222 22.5287C105.633 21.4944 105.339 20.2991 105.339 18.9433C105.339 17.5698 105.624 16.3478 106.195 15.2775C106.784 14.2072 107.586 13.3777 108.603 12.789C109.638 12.1825 110.851 11.8793 112.242 11.8793C113.544 11.8793 114.695 12.1647 115.694 12.7355C116.693 13.3063 117.469 14.0912 118.022 15.0902C118.593 16.0713 118.878 17.1684 118.878 18.3814C118.878 18.5777 118.869 18.7828 118.852 18.9969C118.852 19.2109 118.842 19.4339 118.825 19.6658H108.737C108.808 20.7004 109.165 21.5122 109.807 22.101C110.467 22.6894 111.261 22.9838 112.189 22.9838C112.884 22.9838 113.464 22.8322 113.928 22.5287C114.41 22.2079 114.766 21.7975 114.998 21.2979H118.477C118.227 22.1365 117.808 22.9037 117.219 23.5994C116.648 24.277 115.935 24.8121 115.078 25.2048C114.24 25.597 113.286 25.7936 112.215 25.7936ZM112.242 14.6621C111.404 14.6621 110.664 14.9029 110.021 15.3845C109.379 15.8483 108.969 16.5619 108.79 17.5252H115.4C115.346 16.6511 115.025 15.9554 114.436 15.438C113.848 14.9208 113.116 14.6621 112.242 14.6621Z" fill="#622F60"/>
<path d="M126.174 25.7936C124.997 25.7936 123.962 25.6061 123.07 25.2316C122.178 24.8389 121.464 24.3038 120.929 23.6258C120.394 22.9483 120.073 22.1633 119.966 21.2715H123.418C123.525 21.7884 123.81 22.2348 124.274 22.6093C124.755 22.966 125.371 23.1444 126.12 23.1444C126.87 23.1444 127.414 22.9928 127.752 22.6894C128.109 22.3863 128.287 22.0382 128.287 21.646C128.287 21.0749 128.038 20.6913 127.538 20.4953C127.039 20.2812 126.343 20.0761 125.451 19.8799C124.881 19.755 124.301 19.6034 123.712 19.425C123.123 19.2466 122.579 19.0236 122.08 18.7561C121.598 18.4706 121.206 18.1139 120.902 17.6857C120.599 17.2397 120.448 16.6957 120.448 16.0535C120.448 14.8761 120.911 13.8861 121.839 13.0834C122.784 12.2806 124.104 11.8793 125.799 11.8793C127.369 11.8793 128.618 12.2449 129.545 12.9763C130.491 13.7077 131.053 14.7156 131.231 16H127.993C127.797 15.0189 127.057 14.5283 125.772 14.5283C125.13 14.5283 124.631 14.6532 124.274 14.9029C123.935 15.1526 123.766 15.4648 123.766 15.8394C123.766 16.2319 124.024 16.544 124.542 16.776C125.059 17.0079 125.746 17.2219 126.602 17.4182C127.529 17.6322 128.377 17.873 129.144 18.1406C129.929 18.3903 130.553 18.7739 131.017 19.2912C131.481 19.7907 131.713 20.5132 131.713 21.4585C131.731 22.2794 131.516 23.0193 131.07 23.6795C130.625 24.3393 129.982 24.8567 129.144 25.2316C128.306 25.6061 127.315 25.7936 126.174 25.7936Z" fill="#622F60"/>
<path d="M139.162 25.7936C137.984 25.7936 136.95 25.6061 136.058 25.2316C135.166 24.8389 134.453 24.3038 133.917 23.6258C133.382 22.9483 133.061 22.1633 132.954 21.2715H136.406C136.513 21.7884 136.798 22.2348 137.262 22.6093C137.744 22.966 138.359 23.1444 139.108 23.1444C139.857 23.1444 140.402 22.9928 140.741 22.6894C141.097 22.3863 141.276 22.0382 141.276 21.646C141.276 21.0749 141.026 20.6913 140.526 20.4953C140.027 20.2812 139.331 20.0761 138.44 19.8799C137.868 19.755 137.289 19.6034 136.7 19.425C136.112 19.2466 135.567 19.0236 135.068 18.7561C134.586 18.4706 134.194 18.1139 133.891 17.6857C133.587 17.2397 133.436 16.6957 133.436 16.0535C133.436 14.8761 133.9 13.8861 134.827 13.0834C135.773 12.2806 137.093 11.8793 138.787 11.8793C140.357 11.8793 141.606 12.2449 142.533 12.9763C143.479 13.7077 144.041 14.7156 144.219 16H140.981C140.785 15.0189 140.045 14.5283 138.76 14.5283C138.118 14.5283 137.619 14.6532 137.262 14.9029C136.923 15.1526 136.754 15.4648 136.754 15.8394C136.754 16.2319 137.012 16.544 137.529 16.776C138.047 17.0079 138.734 17.2219 139.59 17.4182C140.518 17.6322 141.365 17.873 142.132 18.1406C142.917 18.3903 143.541 18.7739 144.005 19.2912C144.469 19.7907 144.701 20.5132 144.701 21.4585C144.719 22.2794 144.505 23.0193 144.059 23.6795C143.612 24.3393 142.97 24.8567 142.132 25.2316C141.294 25.6061 140.303 25.7936 139.162 25.7936Z" fill="#622F60"/>
</svg>
