<svg width="24" height="24" viewBox="0 0 24 24" fill="none" xmlns="http://www.w3.org/2000/svg">
<circle cx="12.5283" cy="8.30421" r="1.056" stroke="#342E34" stroke-width="1.056"/>
<path d="M11.5581 4.17981C12.0797 3.72624 12.8398 3.69782 13.3911 4.09485L13.4985 4.17981L20.2837 10.0792C20.5936 10.3487 20.7751 10.7335 20.7905 11.1388L20.7876 11.3136L20.2134 18.4552C20.1514 19.2229 19.5099 19.8143 18.7397 19.8146H6.31689C5.59473 19.8144 4.98606 19.2945 4.86182 18.5968L4.84326 18.4552L4.26904 11.3136C4.23619 10.9043 4.37549 10.5027 4.64795 10.2023L4.77295 10.0792L11.5581 4.17981Z" stroke="#342E34" stroke-width="1.2672"/>
<line x1="7.45196" y1="19.8939" x2="7.45196" y2="21.9262" stroke="#342E34" stroke-width="1.2672" stroke-linecap="round"/>
<line x1="17.2562" y1="19.8939" x2="17.2562" y2="21.9262" stroke="#342E34" stroke-width="1.2672" stroke-linecap="round"/>
<path d="M14.996 19.262V14.7748C14.996 13.6084 14.0504 12.6628 12.884 12.6628H12.2053C11.0388 12.6628 10.0933 13.6084 10.0933 14.7748V19.262" stroke="#342E34" stroke-width="1.2672"/>
</svg>
